Coordinates
version=1
nRows=26
nColumns=30
inDegrees=yes

Units are S.I. units (second, meters, Newtons, ...)
Angles are in degrees.

endheader
time	floatyaw	floatroll	floatpitch	floatx	floaty	floatz	pro_sup_l	deviation_l	flexion_l	cmc_flexion_l	cmc_abduction_l	mp_flexion_l	ip_flexion_l	2mcp_flexion_l	2mcp_abduction_l	2pm_flexion_l	2md_flexion_l	3mcp_flexion_l	3mcp_abduction_l	3pm_flexion_l	3md_flexion_l	4mcp_flexion_l	4mcp_abduction_l	4pm_flexion_l	4md_flexion_l	5mcp_flexion_l	5mcp_abduction_l	5pm_flexion_l	5md_flexion_l
-0.495000	-160.147433	-5.066637	-73.570646	0.065344	-0.174670	-0.029860	90.508255	-1.118548	-1.089135	14.407757	-2.111676	-24.627876	-41.178590	31.724576	7.443217	41.729494	30.156512	26.849384	4.248191	43.289122	28.952906	16.006142	-4.603179	51.522052	36.147821	0.335564	-8.011213	62.846974	43.572907
-0.485000	-160.147433	-5.066637	-73.570646	0.065330	-0.174665	-0.029893	90.482018	-1.099913	-1.083928	14.360762	-2.158306	-24.612473	-41.161827	31.733745	7.436622	41.703169	30.140675	26.870154	4.255608	43.260463	28.941070	16.020809	-4.605443	51.518545	36.142320	0.347242	-8.021877	62.844566	43.564129
-0.475000	-160.147433	-5.066637	-73.570646	0.065314	-0.174659	-0.029925	90.454834	-1.080224	-1.075256	14.323978	-2.203322	-24.610571	-41.147771	31.750739	7.430381	41.676626	30.118150	26.888194	4.261282	43.235034	28.930953	16.031256	-4.606920	51.517020	36.133749	0.355448	-8.034648	62.849824	43.554946
-0.465000	-160.147433	-5.066637	-73.570646	0.065295	-0.174654	-0.029959	90.424695	-1.062671	-1.063654	14.296255	-2.242557	-24.622537	-41.138532	31.773916	7.425411	41.656381	30.091751	26.903136	4.265175	43.215483	28.923740	16.035695	-4.607125	51.520150	36.123584	0.358672	-8.047645	62.862017	43.546214
-0.455000	-160.147433	-5.066637	-73.570646	0.065272	-0.174653	-0.029996	90.389722	-1.049562	-1.050505	14.273219	-2.270249	-24.644090	-41.135497	31.797667	7.421874	41.648444	30.066723	26.914097	4.267805	43.203022	28.920865	16.034274	-4.606405	51.528359	36.113283	0.355069	-8.058078	62.878370	43.539388
-0.445000	-160.147433	-5.066637	-73.570646	0.065248	-0.174658	-0.030035	90.349478	-1.041572	-1.037179	14.250218	-2.282780	-24.668579	-41.139292	31.814903	7.419614	41.655574	30.048792	26.920574	4.270065	43.195751	28.922313	16.029247	-4.605617	51.538686	36.103934	0.343437	-8.063378	62.895264	43.536537
-0.435000	-160.147433	-5.066637	-73.570646	0.065223	-0.174666	-0.030076	90.305430	-1.037963	-1.024437	14.224943	-2.281399	-24.689701	-41.149214	31.820607	7.418684	41.675461	30.041866	26.923294	4.272849	43.189182	28.926228	16.023976	-4.605558	51.545986	36.096589	0.324761	-8.062623	62.909280	43.539789
-0.425000	-160.147433	-5.066637	-73.570646	0.065200	-0.174674	-0.030118	90.260586	-1.037393	-1.012379	14.198165	-2.272332	-24.703367	-41.162538	31.814455	7.419496	41.701094	30.046576	26.924320	4.276598	43.178964	28.930285	16.021428	-4.606513	51.545689	36.092779	0.303363	-8.057316	62.917462	43.550251
-0.415000	-160.147433	-5.066637	-73.570646	0.065180	-0.174680	-0.030160	90.218781	-1.038746	-1.000708	14.172273	-2.264139	-24.708062	-41.174092	31.801080	7.422514	41.723405	30.060217	26.926254	4.280988	43.163890	28.933661	16.023042	-4.608147	51.536158	36.094322	0.286415	-8.050817	62.917145	43.567020
-0.405000	-160.147433	-5.066637	-73.570646	0.065164	-0.174680	-0.030204	90.183949	-1.041543	-0.988879	14.148693	-2.263403	-24.704053	-41.176697	31.787967	7.427781	41.734764	30.077867	26.930977	4.284952	43.146861	28.937926	16.028454	-4.609683	51.519058	36.102181	0.281261	-8.046619	62.906265	43.587061
-0.395000	-160.147433	-5.066637	-73.570646	0.065150	-0.174670	-0.030247	90.159423	-1.045756	-0.975942	14.126080	-2.271113	-24.692492	-41.163167	31.782162	7.434660	41.731425	30.094096	26.938637	4.287087	43.133095	28.946014	16.035970	-4.610221	51.497766	36.115161	0.291598	-8.046485	62.884489	43.606199
-0.385000	-160.147433	-5.066637	-73.570646	0.065137	-0.174650	-0.030292	90.147058	-1.051240	-0.960338	14.100767	-2.282144	-24.675251	-41.129724	31.787332	7.441936	41.714332	30.104740	26.947439	4.286319	43.126989	28.959882	16.043357	-4.609043	51.475395	36.129606	0.314730	-8.049742	62.854600	43.620702
-0.375000	-160.147433	-5.066637	-73.570646	0.065123	-0.174618	-0.030336	90.145989	-1.057299	-0.940184	14.069449	-2.288252	-24.655333	-41.079060	31.802337	7.448137	41.689046	30.108371	26.954373	4.282532	43.129941	28.978490	16.048446	-4.605882	51.454199	36.140680	0.341784	-8.054229	62.823085	43.628665
-0.365000	-160.147433	-5.066637	-73.570646	0.065107	-0.174574	-0.030379	90.151514	-1.062873	-0.914434	14.032402	-2.282563	-24.636860	-41.020733	31.821985	7.451885	41.665267	30.107032	26.956607	4.276817	43.140556	28.997736	16.049422	-4.601089	51.436647	36.144745	0.361224	-8.058218	62.798967	43.630570
-0.355000	-160.147433	-5.066637	-73.570646	0.065088	-0.174524	-0.030423	90.155561	-1.067284	-0.884499	13.994954	-2.263110	-24.623882	-40.967995	31.839793	7.452220	41.654951	30.105621	26.952929	4.271060	43.156860	29.012813	16.045005	-4.595647	51.426684	36.141525	0.364305	-8.061783	62.790649	43.628722
-0.345000	-160.147433	-5.066637	-73.570646	0.065066	-0.174473	-0.030467	90.150153	-1.070940	-0.855045	13.965831	-2.234295	-24.618583	-40.932546	31.851422	7.448892	41.668038	30.109557	26.944443	4.266935	43.178751	29.021532	16.034791	-4.590969	51.429179	36.134555	0.349870	-8.066407	62.801729	43.625538
-0.335000	-160.147433	-5.066637	-73.570646	0.065042	-0.174430	-0.030512	90.133362	-1.075527	-0.832585	13.952872	-2.206181	-24.620438	-40.920042	31.856751	7.442558	41.706980	30.121373	26.933991	4.264825	43.208530	29.026006	16.019837	-4.588491	51.446755	36.129072	0.325858	-8.072945	62.827665	43.621305
-0.325000	-160.147433	-5.066637	-73.570646	0.065018	-0.174397	-0.030562	90.114459	-1.083842	-0.821639	13.958203	-2.191967	-24.627384	-40.928819	31.859245	7.434733	41.763518	30.138076	26.924675	4.263315	43.248268	29.030860	16.003664	-4.589210	51.475029	36.127897	0.306322	-8.079442	62.855177	43.612657
-0.315000	-160.147433	-5.066637	-73.570646	0.064996	-0.174362	-0.030623	90.113979	-1.099489	-0.820112	13.975406	-2.204134	-24.638640	-40.952621	31.863027	7.427440	41.821103	30.151486	26.918865	4.259551	43.295169	29.038807	15.993799	-4.593305	51.498831	36.127361	0.305431	-8.080788	62.865246	43.593194
-0.305000	-160.147433	-5.066637	-73.570646	0.064970	-0.174299	-0.030718	90.156399	-1.125940	-0.816567	13.990014	-2.250222	-24.657573	-40.986005	31.869380	7.422658	41.863716	30.152786	26.919000	4.250254	43.338717	29.046968	16.003502	-4.599869	51.492738	36.116122	0.332080	-8.071180	62.839500	43.556791
-0.295000	-160.147433	-5.066637	-73.570646	0.064926	-0.174168	-0.030882	90.257107	-1.163808	-0.791597	13.982567	-2.329903	-24.692728	-41.029336	31.875085	7.421725	41.887763	30.139884	26.930121	4.232998	43.363661	29.047420	16.052276	-4.606716	51.428413	36.078814	0.388665	-8.048466	62.768998	43.502569
-0.285000	-160.147433	-5.066637	-73.570646	0.064836	-0.173923	-0.031167	90.408639	-1.205901	-0.723637	13.932143	-2.435718	-24.755746	-41.089769	31.874672	7.424794	41.910347	30.123230	26.962404	4.207505	43.359452	29.032564	16.163359	-4.610324	51.288042	36.003832	0.474935	-8.017928	62.663128	43.438884
-0.275000	-160.147433	-5.066637	-73.570646	0.064660	-0.173522	-0.031632	90.572380	-1.231544	-0.597476	13.818707	-2.558658	-24.856445	-41.176248	31.866685	7.430473	41.967221	30.124896	27.031181	4.176683	43.331422	29.002219	16.357596	-4.606141	51.078464	35.891503	0.594451	-7.992719	62.554065	43.383028
-0.265000	-160.147433	-5.066637	-73.570646	0.064349	-0.172943	-0.032328	90.680782	-1.203391	-0.412271	13.624172	-2.695972	-24.997248	-41.290419	31.860579	7.435903	42.098620	30.169143	27.152833	4.146915	43.306024	28.967635	16.645637	-4.589527	50.837378	35.757552	0.759388	-7.989350	62.491148	43.354774
-0.255000	-160.147433	-5.066637	-73.570646	0.063853	-0.172188	-0.033287	90.651487	-1.070094	-0.185685	13.333293	-2.855138	-25.170094	-41.418973	31.878738	7.437423	42.328599	30.268497	27.337601	4.126969	43.324267	28.948967	17.022675	-4.557227	50.624608	35.628712	0.990554	-8.019191	62.522486	43.365334
-0.245000	-160.147433	-5.066637	-73.570646	0.063126	-0.171271	-0.034509	90.408862	-0.776327	0.047924	12.935513	-3.049340	-25.357983	-41.533123	31.950268	7.431414	42.648228	30.413131	27.583470	4.125238	43.423110	28.966004	17.469982	-4.508704	50.497760	35.531431	1.312518	-8.080082	62.668383	43.406947
